<svg width="1194.000000" height="1405.000000" viewBox="0 0 1194 1405" fill="none" xmlns="http://www.w3.org/2000/svg" xmlns:xlink="http://www.w3.org/1999/xlink">
	<desc>
			Created with Pixso.
	</desc>
	<defs>
		<filter id="filter_24_3924_dd" x="-0.768555" y="-0.199951" width="1193.880859" height="1404.478027" filterUnits="userSpaceOnUse" color-interpolation-filters="sRGB">
			<feFlood flood-opacity="0" result="BackgroundImageFix"/>
			<feBlend mode="normal" in="SourceGraphic" in2="BackgroundImageFix" result="shape"/>
			<feGaussianBlur stdDeviation="123.067" result="effect_layerBlur_1"/>
		</filter>
	</defs>
	<path id="Vector" d="M823.9 411.59L823.9 771.2L823.69 771.2L823.91 902.35C814.73 1015.34 732.42 1034.47 660.83 1028.99C600.88 1024.4 549.82 1014.84 507.48 1015.17C481.76 1015.37 454.58 1020.09 420.22 1028.59C372.11 1040.48 373.43 1040.02 373.43 992.48L373.43 632.87L373.65 632.87L373.43 501.72C382.6 388.74 464.91 369.6 536.5 375.09C596.46 379.68 647.52 389.23 689.85 388.91C715.58 388.71 742.76 383.98 777.12 375.49C825.23 363.59 823.9 364.05 823.9 411.59Z" fill="#DF231D" fill-opacity="1.000000" fill-rule="evenodd"/>
	<path id="Vector" d="M571.13 422.7C624.12 436.34 690.33 449.82 756.13 419.03C763.68 415.5 767.37 412.65 769.9 414.57C772.24 416.34 773.06 421.48 772.72 428.41C768.42 514.71 685.65 511.34 633.42 504.94L618.88 519.06L629.68 537.38C708.63 518.23 774.22 555.81 777.96 627.35C779.36 654.18 774.15 675.92 765.49 693.51C750.65 723.59 723.68 741.48 687.91 751.71C625.87 769.46 539.16 743.05 531.7 665.81L540.51 638.55L572.31 648.56L615.14 659.82L623.39 682.35L620.06 696.15L615.14 702.66L607.05 710.75C618.21 714.69 626.5 715.22 637.21 714.51C656.27 713.24 673.04 706.23 686.66 688.02C704.98 663.52 710.22 628.85 699.12 604.69C692.16 589.52 679.32 577.1 657.43 575.14C638.43 573.44 625.68 579.92 614.51 596.65L560.57 594.03L555.23 593.03L559.55 579.67L590.32 499.4L571.13 422.7Z" fill="#FFFFFF" fill-opacity="1.000000" fill-rule="evenodd"/>
	<path id="Vector" d="M482.53 471.74C497.19 459.85 516.1 458.32 532.61 465.68C577.16 485.55 565.9 539.38 527.14 562.01C511.94 571.68 497.9 578.45 487.18 585.22C436.09 617.46 425.61 637.84 426.99 692.41L626.31 693C657.88 693.1 675.37 668.09 676.84 643.83C677.54 632.43 673.24 622.45 667.4 613.4C629.44 629.18 594.78 611.7 545.19 616.46C510.12 619.84 482.69 637.6 480.44 637.08C477.11 636.32 480.74 629.38 496.54 619.4C529.59 598.52 565.04 598.21 590.87 584.4C626.18 565.5 640.66 522.81 631.47 485.14C620.59 440.55 576.98 416.31 532.34 416.42C520.32 416.45 506.2 418.28 494.55 422.01C448.63 436.73 419.26 482.48 428.86 526.99C432.48 543.76 443.77 556.07 460.06 559.44C486.79 564.98 513.8 551.58 517.01 522.51C520.56 490.44 498.74 479.48 482.53 471.74Z" fill="#FBD927" fill-opacity="1.000000" fill-rule="evenodd"/>
	<path id="Vector" d="M527.34 723.81L516.12 723.81L516.12 763.29L507.6 763.29L507.6 723.81L496.38 723.81L496.38 715.97L527.34 715.97L527.34 723.81Z" fill="#FBD927" fill-opacity="1.000000" fill-rule="evenodd"/>
	<path id="Vector" d="M469.84 715.97L493.5 715.97L493.5 723.81L478.36 723.81L478.36 735.44L492.08 735.44L492.08 743.28L478.36 743.28L478.36 755.45L493.77 755.45L493.77 763.29L469.84 763.29L469.84 715.97Z" fill="#FBD927" fill-opacity="1.000000" fill-rule="evenodd"/>
	<path id="Vector" d="M455.2 723.81L448.03 723.81C447.72 732.38 447.29 739.54 446.75 745.31C446.21 751.03 445.17 755.4 443.64 758.42C443.1 759.5 442.47 760.4 441.75 761.12C441.07 761.8 440.37 762.34 439.65 762.75C438.98 763.11 438.28 763.36 437.56 763.49C436.84 763.67 436.18 763.76 435.6 763.76C434.65 763.76 433.82 763.67 433.1 763.49C432.38 763.36 431.7 763.13 431.07 762.81L432.02 755.11C432.83 755.42 433.64 755.45 434.45 755.18C435.26 754.86 435.94 754.12 436.48 752.95C437.02 751.96 437.49 750.51 437.9 748.62C438.3 746.68 438.64 744.2 438.91 741.19C439.23 738.17 439.45 734.58 439.59 730.44C439.77 726.29 439.9 721.47 439.99 715.97L463.72 715.97L463.72 763.29L455.2 763.29L455.2 723.81Z" fill="#FBD927" fill-opacity="1.000000" fill-rule="evenodd"/>
	<path id="Vector" d="M483.71 869.07L468.37 869.07L445 869.07L443.12 885.6L430.51 885.6L430.51 853.27L437.47 853.27C438.04 852.21 438.82 850.35 439.79 847.69C440.75 845.03 441.69 841.43 442.61 836.89C443.53 832.35 444.33 826.74 445 820.07C445.68 813.41 446.02 805.58 446.02 796.59L489.65 796.59L489.65 853.27L498.35 853.27L498.35 869.07L483.71 869.07ZM472.4 854.29L472.4 811.95L461.38 811.95C461.19 815.43 460.93 819.23 460.59 823.31C460.25 827.37 459.79 831.33 459.21 835.15C458.63 838.99 457.98 842.59 457.25 846C456.53 849.38 455.68 852.16 454.72 854.29L472.4 854.29ZM506.18 800.93C509.08 799.2 512.71 797.79 517.06 796.73C521.4 795.67 526.34 795.14 531.84 795.14C540.06 795.14 545.79 797.27 549.02 801.52C552.26 805.77 553.88 811.81 553.88 819.64C553.88 824.18 553.76 828.65 553.52 833.05C553.28 837.44 553.11 841.75 553.01 845.95C552.91 850.15 552.98 854.21 553.23 858.13C553.47 862.04 554.12 865.74 555.18 869.22L541.12 869.22L538.36 860.38L537.79 860.38C536.24 863.18 534.06 865.5 531.27 867.33C528.46 869.17 524.93 870.09 520.68 870.09C514.97 870.09 510.48 868.18 507.2 864.36C503.91 860.54 502.27 855.45 502.27 849.07C502.27 840.37 505.36 834.18 511.55 830.51C517.73 826.84 526.09 825.29 536.63 825.87C537.11 820.27 536.75 816.21 535.54 813.69C534.33 811.18 531.74 809.92 527.78 809.92C524.89 809.92 521.89 810.26 518.79 810.94C515.7 811.61 512.95 812.58 510.53 813.84L506.18 800.93ZM526.91 855.3C529.52 855.3 531.65 854.65 533.29 853.34C534.93 852.04 536.15 850.62 536.92 849.07L536.92 837.04C534.69 836.75 532.57 836.69 530.54 836.89C528.51 837.08 526.72 837.51 525.17 838.19C523.63 838.87 522.4 839.86 521.48 841.17C520.56 842.47 520.1 844.14 520.1 846.17C520.1 849.16 520.71 851.44 521.91 852.98C523.12 854.52 524.79 855.3 526.91 855.3ZM565.91 796.59L578.81 796.59L580.56 804.85L580.99 804.85C583.21 801.37 585.7 798.84 588.45 797.24C591.21 795.65 594.62 794.85 598.68 794.85C606.02 794.85 611.55 797.63 615.27 803.18C618.99 808.74 620.85 817.99 620.85 830.94C620.85 843.89 618.53 853.83 613.9 860.74C609.26 867.65 602.54 871.1 593.75 871.1C591.43 871.1 589.45 870.91 587.8 870.52C586.16 870.14 584.62 869.51 583.16 868.64L583.16 884.5L565.91 884.5L565.91 796.59ZM583.16 852.83C584.13 853.81 585.21 854.52 586.43 855.01C587.63 855.5 589.2 855.74 591.14 855.74C595 855.74 597.95 853.83 599.98 850.01C602.01 846.19 603.02 839.69 603.02 830.51C603.02 823.65 602.25 818.55 600.7 815.22C599.16 811.88 596.59 810.22 593.02 810.22C588.19 810.22 584.9 813.06 583.16 818.77L583.16 852.83ZM666.23 837.47L667.54 825.73L667.1 825.73L661.74 838.05L642.31 869.07L630.72 869.07L630.72 796.59L647.97 796.59L647.97 829.5L646.66 840.81L647.1 840.81L652.31 828.77L671.88 796.59L683.49 796.59L683.49 869.07L666.23 869.07L666.23 837.47ZM747.42 835.73L748.43 820.8L747.73 820.8L743.41 834.28L732.92 856.02L726.4 856.02L714.63 834.28L710.06 820.8L709.2 820.8L711.03 835.73L711.03 869.07L695.95 869.07L695.95 796.59L713.78 796.59L727.19 823.26L730.16 832.98L730.74 832.98L733.77 822.97L745.82 796.59L763.94 796.59L763.94 869.07L747.42 869.07L747.42 835.73Z" fill="#FFFFFF" fill-opacity="1.000000" fill-rule="nonzero"/>
	<path id="Vector" d="M689.4 932.32C689.4 919.47 691.91 909.9 696.94 903.62C701.97 897.34 708.97 894.19 717.96 894.19C727.63 894.19 734.83 897.38 739.56 903.76C744.3 910.14 746.66 919.66 746.66 932.32C746.66 945.27 744.15 954.89 739.13 961.17C734.1 967.36 727.05 970.45 717.96 970.45C698.92 970.45 689.4 957.74 689.4 932.32ZM707.23 932.32C707.23 939.57 708.05 945.18 709.7 949.14C711.34 953.1 714.09 955.08 717.96 955.08C721.63 955.08 724.34 953.39 726.08 950.01C727.92 946.53 728.83 940.63 728.83 932.32C728.83 924.88 728.01 919.23 726.37 915.36C724.73 911.49 721.92 909.56 717.96 909.56C714.58 909.56 711.92 911.3 709.99 914.78C708.15 918.16 707.23 924.01 707.23 932.32Z" fill="#FFFFFF" fill-opacity="1.000000" fill-rule="nonzero"/>
	<path id="Vector" d="M662.34 911.88L651.91 911.88C651.52 920.29 650.99 928.02 650.31 935.08C649.64 942.13 648.57 948.22 647.12 953.34C645.67 958.37 643.69 962.33 641.18 965.23C638.76 968.03 635.57 969.43 631.61 969.43C629.19 969.43 627.12 969.24 625.38 968.85C623.64 968.56 622.14 968.03 620.88 967.26L622.91 952.18C625.23 952.96 627.16 952.91 628.71 952.04C630.35 951.17 631.71 948.8 632.77 944.93C633.83 940.97 634.65 935.12 635.23 927.39C635.91 919.66 636.39 909.22 636.68 896.08L679.6 896.08L679.6 968.56L662.34 968.56L662.34 911.88Z" fill="#FFFFFF" fill-opacity="1.000000" fill-rule="nonzero"/>
	<path id="Vector" d="M599.51 911.88L582.69 911.88L582.69 968.56L565.44 968.56L565.44 896.08L616.76 896.08L616.76 968.56L599.51 968.56L599.51 911.88Z" fill="#FFFFFF" fill-opacity="1.000000" fill-rule="nonzero"/>
	<path id="Vector" d="M552.43 963.2C550.02 965.33 546.73 967.07 542.57 968.42C538.42 969.77 534.07 970.45 529.52 970.45C524.5 970.45 520.15 969.58 516.48 967.84C512.9 966.1 509.95 963.59 507.63 960.3C505.31 957.02 503.58 953.05 502.42 948.41C501.35 943.68 500.82 938.31 500.82 932.32C500.82 919.27 503.38 909.66 508.5 903.47C513.72 897.19 520.92 894.05 530.1 894.05C533.2 894.05 536.19 894.53 539.09 895.5C541.99 896.37 544.55 897.92 546.78 900.14C549.1 902.26 550.93 905.16 552.28 908.84C553.74 912.41 554.46 916.96 554.46 922.46C554.46 924.59 554.32 926.86 554.03 929.28C553.83 931.69 553.49 934.3 553.01 937.11L517.78 937.11C517.98 943.1 519.23 947.69 521.55 950.88C523.87 954.07 527.59 955.66 532.71 955.66C535.81 955.66 538.61 955.18 541.12 954.21C543.73 953.25 545.71 952.23 547.07 951.17L552.43 963.2ZM529.81 908.84C526.14 908.84 523.39 910.33 521.55 913.33C519.71 916.23 518.65 920.34 518.36 925.65L538.37 925.65C538.66 920.14 538.08 915.99 536.63 913.19C535.18 910.29 532.91 908.84 529.81 908.84Z" fill="#FFFFFF" fill-opacity="1.000000" fill-rule="nonzero"/>
	<path id="Vector" d="M497.8 911.88L481.85 911.88L481.85 968.56L464.6 968.56L464.6 911.88L448.07 911.88L448.07 896.08L497.8 896.08L497.8 911.88Z" fill="#FFFFFF" fill-opacity="1.000000" fill-rule="nonzero"/>
</svg>
