<svg width="970" height="800" viewBox="0 0 970 800" fill="none" xmlns="http://www.w3.org/2000/svg">
<path fill-rule="evenodd" clip-rule="evenodd" d="M322.193 389.777L226.606 634.413L315.384 623.196L373.056 691.59L468.653 446.954L395.418 418.366L322.193 389.777Z" fill="#57A03C" stroke="#DF231D" stroke-width="12.4364"/>
<path fill-rule="evenodd" clip-rule="evenodd" d="M324.942 406.916L239.69 624.225L318.869 614.262L370.305 675.016L455.565 457.706L390.249 432.311L324.942 406.916Z" fill="#57A03C" stroke="#FBD927" stroke-width="12.4364"/>
<path fill-rule="evenodd" clip-rule="evenodd" d="M647.814 389.777L743.401 634.413L654.623 623.196L596.952 691.59L501.354 446.954L574.589 418.366L647.814 389.777Z" fill="#57A03C" stroke="#DF231D" stroke-width="12.4364"/>
<path fill-rule="evenodd" clip-rule="evenodd" d="M645.065 406.916L730.317 624.225L651.138 614.262L599.703 675.016L514.442 457.706L579.758 432.311L645.065 406.916Z" fill="#57A03C" stroke="#FBD927" stroke-width="12.4364"/>
<g filter="url(#filter0_d_38_5494)">
<path fill-rule="evenodd" clip-rule="evenodd" d="M485.604 99.3359C527.796 81.5282 514.284 80.5885 551.162 107.782C596.439 101.039 583.595 96.7634 612.556 132.285C658.09 137.03 646.701 129.689 665.938 171.306C708.857 187.246 699.649 177.297 707.954 222.392C745.571 248.528 739.12 236.593 735.953 282.346C765.899 317.021 762.626 303.865 748.198 347.386C768.585 388.428 768.679 374.872 743.894 413.436C753.453 458.261 756.914 445.151 723.331 476.327C721.455 522.138 728.058 510.297 687.79 532.134C674.606 576.031 683.943 566.21 639.51 577.334C615.828 616.568 627.323 609.379 581.53 609.085C548.851 641.188 561.754 637.089 517.474 625.401C477.851 648.365 491.375 647.602 451.389 625.248C407.297 637.617 420.586 640.26 387.403 608.65C341.633 609.649 353.856 615.51 329.564 576.63C284.979 566.21 295.36 574.926 281.483 531.218C240.898 510.015 248.781 521.045 246.2 475.258C212.149 444.611 217.052 457.262 225.919 412.261C200.548 374.109 202.155 387.57 221.908 346.199C206.812 302.925 205.029 316.363 234.447 281.218C230.564 235.536 225.497 248.116 262.716 221.393C270.305 176.181 262.27 187.105 304.955 170.496C323.546 128.596 313.048 137.171 358.513 131.709C386.922 95.7532 374.629 101.45 420.023 107.488C456.456 79.731 443.143 82.186 485.604 99.3359Z" fill="#57A03C"/>
<path fill-rule="evenodd" clip-rule="evenodd" d="M485.604 99.3359C527.796 81.5282 514.284 80.5885 551.162 107.782C596.439 101.039 583.595 96.7634 612.556 132.285C658.09 137.03 646.701 129.689 665.938 171.306C708.857 187.246 699.649 177.297 707.954 222.392C745.571 248.528 739.12 236.593 735.953 282.346C765.899 317.021 762.626 303.865 748.198 347.386C768.585 388.428 768.679 374.872 743.894 413.436C753.453 458.261 756.914 445.151 723.331 476.327C721.455 522.138 728.058 510.297 687.79 532.134C674.606 576.031 683.943 566.21 639.51 577.334C615.828 616.568 627.323 609.379 581.53 609.085C548.851 641.188 561.754 637.089 517.474 625.401C477.851 648.365 491.375 647.602 451.389 625.248C407.297 637.617 420.586 640.26 387.403 608.65C341.633 609.649 353.856 615.51 329.564 576.63C284.979 566.21 295.36 574.926 281.483 531.218C240.898 510.015 248.781 521.045 246.2 475.258C212.149 444.611 217.052 457.262 225.919 412.261C200.548 374.109 202.155 387.57 221.908 346.199C206.812 302.925 205.029 316.363 234.447 281.218C230.564 235.536 225.497 248.116 262.716 221.393C270.305 176.181 262.27 187.105 304.955 170.496C323.546 128.596 313.048 137.171 358.513 131.709C386.922 95.7532 374.629 101.45 420.023 107.488C456.456 79.731 443.143 82.186 485.604 99.3359Z" stroke="#DF231D" stroke-width="12"/>
</g>
<path fill-rule="evenodd" clip-rule="evenodd" d="M485.584 108.691C526.286 91.5124 513.251 90.6058 548.827 116.839C592.506 110.335 580.115 106.21 608.054 140.477C651.982 145.055 640.994 137.973 659.552 178.122C700.956 193.499 692.074 183.901 700.085 227.404C736.375 252.618 730.151 241.104 727.096 285.242C755.985 318.694 752.828 306.002 738.909 347.987C758.576 387.58 758.667 374.503 734.757 411.706C743.979 454.948 747.317 442.302 714.92 472.377C713.11 516.571 719.48 505.148 680.633 526.214C667.914 568.562 676.922 559.088 634.058 569.819C611.211 607.668 622.301 600.733 578.124 600.449C546.598 631.42 559.045 627.465 516.328 616.189C478.104 638.343 491.151 637.607 452.576 616.042C410.04 627.975 422.86 630.524 390.848 600.03C346.694 600.993 358.485 606.648 335.05 569.14C292.039 559.088 302.053 567.496 288.667 525.331C249.514 504.876 257.118 515.517 254.629 471.345C221.779 441.781 226.509 453.985 235.064 410.573C210.588 373.767 212.138 386.753 231.194 346.842C216.631 305.096 214.911 318.059 243.291 284.154C239.545 240.085 234.657 252.221 270.562 226.441C277.883 182.825 270.132 193.363 311.31 177.34C329.245 136.919 319.117 145.191 362.977 139.922C390.384 105.235 378.525 110.731 422.317 116.556C457.464 89.7786 444.621 92.1469 485.584 108.691Z" stroke="#FBDD38" stroke-width="12"/>
<path d="M355.902 256.472C359.572 221.417 400.308 217.827 404.034 220.452C419.285 231.21 305.638 279.019 327.342 397.252C339.013 460.845 399.074 506.13 457.418 510.583C466.732 511.29 477.258 535.688 486.281 534.23" stroke="#FBD927" stroke-width="6.21818"/>
<path fill-rule="evenodd" clip-rule="evenodd" d="M343.265 332.437C385.942 293.972 286.032 296.395 303.314 236.56C306.018 227.216 309.733 219.599 313.38 221.259C315.681 222.314 314.929 226.756 317.667 237.121C318.497 240.273 319.462 243.672 320.585 247.194C324.748 260.263 336.509 275.048 333.816 283.124" fill="#57A03C"/>
<path d="M343.265 332.437C385.942 293.972 286.032 296.395 303.314 236.56C306.018 227.216 309.733 219.599 313.38 221.259C315.681 222.314 314.929 226.756 317.667 237.121C318.497 240.273 319.462 243.672 320.585 247.194C324.748 260.263 336.509 275.048 333.816 283.124" stroke="#FBD927" stroke-width="6.21818"/>
<path fill-rule="evenodd" clip-rule="evenodd" d="M353.533 427.316C362.264 379.686 289.062 421.696 270.916 362.119C268.088 352.82 267.044 344.406 271.006 343.801C273.508 343.431 275.304 347.57 283.249 354.76C285.662 356.948 288.333 359.281 291.194 361.614C301.81 370.297 313.784 375.715 315.939 383.96" fill="#57A03C"/>
<path d="M353.533 427.316C362.264 379.686 289.062 421.696 270.916 362.119C268.088 352.82 267.044 344.406 271.006 343.801C273.508 343.431 275.304 347.57 283.249 354.76C285.662 356.948 288.333 359.281 291.194 361.614C301.81 370.297 313.784 375.715 315.939 383.96" stroke="#FBD927" stroke-width="6.21818"/>
<path fill-rule="evenodd" clip-rule="evenodd" d="M339.733 382.041C352.784 365.563 334.919 353.896 320.824 346.493C306.381 338.898 287.326 334.624 283.881 301.207C282.882 291.538 283.477 283.08 287.483 283.248C290.008 283.36 290.973 287.769 297.392 296.35C299.345 298.964 301.522 301.757 303.878 304.595C312.632 315.151 318.826 320.098 319.354 328.601" fill="#57A03C"/>
<path d="M339.733 382.041C352.784 365.563 334.919 353.896 320.824 346.493C306.381 338.898 287.326 334.624 283.881 301.207C282.882 291.538 283.477 283.08 287.483 283.248C290.008 283.36 290.973 287.769 297.392 296.35C299.345 298.964 301.522 301.757 303.878 304.595C312.632 315.151 318.826 320.098 319.354 328.601" stroke="#FBD927" stroke-width="6.21818"/>
<path fill-rule="evenodd" clip-rule="evenodd" d="M381.562 463.133C374.807 420.215 314.465 480.767 281.809 427.73C276.714 419.452 273.572 411.577 277.253 409.995C279.576 408.997 282.359 412.553 291.875 417.5C294.771 419.003 297.935 420.574 301.291 422.11C313.77 427.82 328.089 431.241 332.252 438.667" fill="#57A03C"/>
<path d="M381.562 463.133C374.807 420.215 314.465 480.767 281.809 427.73C276.714 419.452 273.572 411.577 277.253 409.995C279.576 408.997 282.359 412.553 291.875 417.5C294.771 419.003 297.935 420.574 301.291 422.11C313.77 427.82 328.089 431.241 332.252 438.667" stroke="#FBD927" stroke-width="6.21818"/>
<path fill-rule="evenodd" clip-rule="evenodd" d="M422.258 487.845C398.299 449.919 360.435 529.586 310.699 492.074C302.933 486.219 297.143 480.027 299.993 477.222C301.789 475.45 305.683 477.738 316.344 478.882C319.576 479.23 323.111 479.544 326.791 479.746C340.494 480.52 357.024 478.703 363.611 484.11" fill="#57A03C"/>
<path d="M422.258 487.845C398.299 449.919 360.435 529.586 310.699 492.074C302.933 486.219 297.143 480.027 299.993 477.222C301.789 475.45 305.683 477.738 316.344 478.882C319.576 479.23 323.111 479.544 326.791 479.746C340.494 480.52 357.024 478.703 363.611 484.11" stroke="#FBD927" stroke-width="6.21818"/>
<path d="M616.658 256.471C612.977 221.416 572.241 217.827 568.515 220.452C553.264 231.209 666.911 279.019 645.207 397.252C633.536 460.844 573.475 506.13 515.132 510.583C505.828 511.29 495.291 535.688 486.28 534.23" stroke="#FBD927" stroke-width="6.21818"/>
<path fill-rule="evenodd" clip-rule="evenodd" d="M629.281 332.437C586.604 293.971 686.525 296.394 669.232 236.56C666.528 227.216 662.813 219.599 659.166 221.259C656.865 222.314 657.617 226.756 654.879 237.121C654.049 240.273 653.083 243.672 651.961 247.194C647.798 260.263 636.037 275.047 638.73 283.124" fill="#57A03C"/>
<path d="M629.281 332.437C586.604 293.971 686.525 296.394 669.232 236.56C666.528 227.216 662.813 219.599 659.166 221.259C656.865 222.314 657.617 226.756 654.879 237.121C654.049 240.273 653.083 243.672 651.961 247.194C647.798 260.263 636.037 275.047 638.73 283.124" stroke="#FBD927" stroke-width="6.21818"/>
<path fill-rule="evenodd" clip-rule="evenodd" d="M619.017 427.315C610.286 379.686 683.488 421.695 701.634 362.119C704.462 352.819 705.506 344.406 701.544 343.8C699.042 343.43 697.246 347.57 689.301 354.76C686.888 356.947 684.217 359.281 681.356 361.614C670.74 370.296 658.766 375.714 656.611 383.959" fill="#57A03C"/>
<path d="M619.017 427.315C610.286 379.686 683.488 421.695 701.634 362.119C704.462 352.819 705.506 344.406 701.544 343.8C699.042 343.43 697.246 347.57 689.301 354.76C686.888 356.947 684.217 359.281 681.356 361.614C670.74 370.296 658.766 375.714 656.611 383.959" stroke="#FBD927" stroke-width="6.21818"/>
<path fill-rule="evenodd" clip-rule="evenodd" d="M632.83 382.041C619.767 365.562 637.644 353.896 651.728 346.492C666.182 338.898 685.226 334.624 688.671 301.207C689.67 291.537 689.075 283.079 685.069 283.248C682.555 283.36 681.579 287.768 675.16 296.35C673.207 298.964 671.03 301.757 668.673 304.595C659.92 315.151 653.725 320.097 653.198 328.6" fill="#57A03C"/>
<path d="M632.83 382.041C619.767 365.562 637.644 353.896 651.728 346.492C666.182 338.898 685.226 334.624 688.671 301.207C689.67 291.537 689.075 283.079 685.069 283.248C682.555 283.36 681.579 287.768 675.16 296.35C673.207 298.964 671.03 301.757 668.673 304.595C659.92 315.151 653.725 320.097 653.198 328.6" stroke="#FBD927" stroke-width="6.21818"/>
<path fill-rule="evenodd" clip-rule="evenodd" d="M590.984 463.133C597.74 420.214 658.082 480.767 690.738 427.73C695.833 419.451 698.975 411.577 695.294 409.995C692.971 408.996 690.188 412.552 680.672 417.499C677.788 419.003 674.612 420.573 671.256 422.11C658.777 427.82 644.458 431.241 640.295 438.667" fill="#57A03C"/>
<path d="M590.984 463.133C597.74 420.214 658.082 480.767 690.738 427.73C695.833 419.451 698.975 411.577 695.294 409.995C692.971 408.996 690.188 412.552 680.672 417.499C677.788 419.003 674.612 420.573 671.256 422.11C658.777 427.82 644.458 431.241 640.295 438.667" stroke="#FBD927" stroke-width="6.21818"/>
<path fill-rule="evenodd" clip-rule="evenodd" d="M550.293 487.845C574.252 449.918 612.116 529.585 661.852 492.074C669.618 486.218 675.409 480.026 672.558 477.222C670.763 475.449 666.869 477.738 656.208 478.882C652.976 479.23 649.441 479.544 645.76 479.746C632.058 480.52 615.527 478.702 608.951 484.109" fill="#57A03C"/>
<path d="M550.293 487.845C574.252 449.918 612.116 529.585 661.852 492.074C669.618 486.218 675.409 480.026 672.558 477.222C670.763 475.449 666.869 477.738 656.208 478.882C652.976 479.23 649.441 479.544 645.76 479.746C632.058 480.52 615.527 478.702 608.951 484.109" stroke="#FBD927" stroke-width="6.21818"/>
<path d="M451.916 407.275H476.153V323.756L478.916 309.304L470.2 321.843L456.168 332.681L444.474 318.443L485.507 278.489H500.389V407.275H524.201V429.802H451.916V407.275Z" fill="#FFFBDE"/>
<mask id="mask0_38_5494" style="mask-type:alpha" maskUnits="userSpaceOnUse" x="216" y="96" width="538" height="537">
<path fill-rule="evenodd" clip-rule="evenodd" d="M485.584 108.691C526.286 91.5124 513.251 90.6058 548.827 116.839C592.506 110.335 580.115 106.21 608.054 140.477C651.982 145.055 640.994 137.973 659.552 178.122C700.956 193.499 692.074 183.901 700.085 227.404C736.375 252.618 730.151 241.104 727.096 285.242C755.985 318.694 752.828 306.002 738.909 347.987C758.576 387.58 758.667 374.503 734.757 411.706C743.979 454.948 747.317 442.302 714.92 472.377C713.11 516.571 719.48 505.148 680.633 526.214C667.914 568.562 676.922 559.088 634.058 569.819C611.211 607.668 622.301 600.733 578.124 600.449C546.598 631.419 559.045 627.465 516.328 616.189C478.104 638.343 491.151 637.607 452.576 616.042C410.04 627.975 422.86 630.524 390.848 600.03C346.694 600.993 358.485 606.648 335.05 569.14C292.039 559.088 302.053 567.496 288.667 525.331C249.514 504.876 257.118 515.517 254.629 471.345C221.779 441.781 226.509 453.985 235.064 410.573C210.588 373.767 212.138 386.753 231.194 346.842C216.631 305.096 214.911 318.059 243.291 284.154C239.545 240.085 234.657 252.221 270.562 226.441C277.883 182.825 270.132 193.363 311.31 177.34C329.245 136.919 319.117 145.191 362.977 139.922C390.384 105.235 378.525 110.731 422.317 116.556C457.464 89.7786 444.621 92.1469 485.584 108.691Z" fill="white" fill-opacity="0.2"/>
</mask>
<g mask="url(#mask0_38_5494)">
<rect opacity="0.77" width="117.201" height="926.685" transform="matrix(-0.707107 -0.707107 -0.707107 0.707107 607.14 -136.126)" fill="url(#paint0_linear_38_5494)"/>
</g>
<defs>
<filter id="filter0_d_38_5494" x="0.980225" y="-119.495" width="968.041" height="967.815" filterUnits="userSpaceOnUse" color-interpolation-filters="sRGB">
<feFlood flood-opacity="0" result="BackgroundImageFix"/>
<feColorMatrix in="SourceAlpha" type="matrix" values="0 0 0 0 0 0 0 0 0 0 0 0 0 0 0 0 0 0 127 0" result="hardAlpha"/>
<feOffset/>
<feGaussianBlur stdDeviation="100"/>
<feComposite in2="hardAlpha" operator="out"/>
<feColorMatrix type="matrix" values="0 0 0 0 1 0 0 0 0 0.984314 0 0 0 0 0.870588 0 0 0 0.3 0"/>
<feBlend mode="normal" in2="BackgroundImageFix" result="effect1_dropShadow_38_5494"/>
<feBlend mode="normal" in="SourceGraphic" in2="effect1_dropShadow_38_5494" result="shape"/>
</filter>
<linearGradient id="paint0_linear_38_5494" x1="-9.18288" y1="519.911" x2="147.088" y2="519.911" gradientUnits="userSpaceOnUse">
<stop stop-color="#FFFBDE"/>
<stop offset="1" stop-color="#FFFBDE" stop-opacity="0"/>
</linearGradient>
</defs>
</svg>
