<svg width="450.000000" height="667.000000" viewBox="0 0 450 667" fill="none" xmlns="http://www.w3.org/2000/svg" xmlns:xlink="http://www.w3.org/1999/xlink">
	<desc>
			Created with Pixso.
	</desc>
	<defs/>
	<path id="Vector" d="M449.9 42.59L449.9 402.2L449.69 402.2L449.91 533.35C440.73 646.33 358.42 665.47 286.83 659.98C226.88 655.39 175.82 645.84 133.48 646.16C107.76 646.36 80.58 651.09 46.21 659.58C-1.89 671.48 -0.57 671.02 -0.57 623.48L-0.57 263.87L-0.35 263.87L-0.57 132.72C8.6 19.74 90.91 0.6 162.5 6.09C222.46 10.68 273.52 20.23 315.85 19.91C341.58 19.71 368.76 14.98 403.12 6.49C451.23 -5.41 449.9 -4.95 449.9 42.59Z" fill="#DF231D" fill-opacity="1.000000" fill-rule="evenodd"/>
</svg>
