<svg width="1059.000000" height="992.000000" viewBox="0 0 1059 992" fill="none" xmlns="http://www.w3.org/2000/svg" xmlns:xlink="http://www.w3.org/1999/xlink">
	<defs>
		<filter id="filter_59_232_dd" x="-0.083008" y="-0.770203" width="1058.606689" height="991.882446" filterUnits="userSpaceOnUse" color-interpolation-filters="sRGB">
			<feFlood flood-opacity="0" result="BackgroundImageFix"/>
			<feColorMatrix in="SourceAlpha" type="matrix" values="0 0 0 0 0 0 0 0 0 0 0 0 0 0 0 0 0 0 127 0" result="hardAlpha"/>
			<feOffset dx="0" dy="0"/>
			<feGaussianBlur stdDeviation="71.8999"/>
			<feComposite in2="hardAlpha" operator="out" k2="-1" k3="1"/>
			<feColorMatrix type="matrix" values="0 0 0 0 1 0 0 0 0 0.98431 0 0 0 0 0.87059 0 0 0 0.3 0"/>
			<feBlend mode="normal" in2="BackgroundImageFix" result="effect_dropShadow_1"/>
			<feBlend mode="normal" in="SourceGraphic" in2="effect_dropShadow_1" result="shape"/>
		</filter>
		<filter id="filter_59_233_dd" x="316.311279" y="258.275818" width="425.359619" height="425.359680" filterUnits="userSpaceOnUse" color-interpolation-filters="sRGB">
			<feFlood flood-opacity="0" result="BackgroundImageFix"/>
			<feBlend mode="normal" in="SourceGraphic" in2="BackgroundImageFix" result="shape"/>
			<feGaussianBlur stdDeviation="28.76" result="effect_layerBlur_1"/>
		</filter>
	</defs>
	<g filter="url(#filter_59_232_dd)">
		<path id="Vector" d="M393.45 214.94C445.77 214.64 495.51 239.44 529.22 282.64C562.71 239.14 612.59 214.27 664.98 214.94C763.2 214.94 842.82 300.88 842.82 406.89C842.82 588.57 549.06 765.95 537.15 772.81C532.35 776.27 526.08 776.27 521.28 772.81C509.37 765.95 215.61 591.14 215.61 406.89C215.61 300.88 295.24 214.94 393.45 214.94Z" fill="#DF231D" fill-opacity="1.000000" fill-rule="evenodd"/>
	</g>
	<g opacity="0.200000" filter="url(#filter_59_233_dd)">
		<circle id="Ellipse 24" cx="528.990967" cy="470.955658" r="126.399994" fill="#FBD927" fill-opacity="1.000000"/>
	</g>
	<mask id="mask59_234" mask-type="alpha" maskUnits="userSpaceOnUse" x="215.616943" y="214.929443" width="627.207275" height="560.483093">
		<path id="Vector" d="M393.45 214.94C445.78 214.64 495.51 239.44 529.22 282.64C562.71 239.14 612.59 214.27 664.98 214.94C763.2 214.94 842.82 300.88 842.82 406.89C842.82 588.57 549.06 765.95 537.15 772.81C532.35 776.27 526.08 776.27 521.28 772.81C509.37 765.95 215.61 591.14 215.61 406.89C215.61 300.88 295.24 214.94 393.45 214.94Z" fill="#DF231D" fill-opacity="1.000000" fill-rule="evenodd"/>
	</mask>
	<g mask="url(#mask59_234)">
		<path id="Vector" d="M198.66 422.8C237.41 429.39 366.41 443.79 385.76 465.14C417.12 487.16 457.47 555.83 481.63 569C489.69 574.49 495.92 577.64 501.79 580.01C513.78 584.84 522.67 585.11 526.72 585.47C532.76 586 580.53 578.3 587.69 585.36C591.83 590.63 589.73 594.87 588.95 596.26C588.67 596.77 588.16 596.8 588.16 596.8C588.16 596.8 625.61 585.8 635.07 593.65C641.45 598.95 637.55 604 637.55 604C637.55 604 657.82 608.53 652.04 621.69C650.15 625.97 640.45 627.62 640.45 627.62C643.56 637.55 620.68 643.95 612.08 645.71C585.1 651.25 471.48 666.09 423.36 640.91C374.07 615.11 343.03 564.37 317.1 550.8C293.15 538.26 241.62 534.17 198.66 532.09L198.66 422.8Z" fill="#FFFBDE" fill-opacity="1.000000" fill-rule="nonzero"/>
		<path id="Vector" d="M847.76 558C809.01 551.41 689.96 538.65 659.5 516.39C629.04 494.14 588.96 424.97 564.8 411.8C556.74 406.31 550.51 403.17 544.63 400.79C532.64 395.96 523.76 395.69 519.7 395.33C513.66 394.8 465.9 402.5 458.73 395.44C454.59 390.17 456.7 385.93 457.47 384.54C457.75 384.03 458.26 384 458.26 384C458.26 384 420.81 395 411.35 387.15C404.98 381.86 408.87 376.8 408.87 376.8C408.87 376.8 388.61 372.27 394.39 359.12C396.27 354.83 405.97 353.18 405.97 353.18C402.86 343.25 425.74 336.85 434.35 335.09C461.32 329.56 574.94 314.71 623.06 339.89C672.36 365.69 703.94 416.31 729.87 429.89C736.9 434.5 747.26 438.39 759.96 440.74C775.43 443.61 793.57 444.65 810.67 445.83C824.46 446.78 836.56 448.49 847.76 448.71L847.76 558Z" fill="#FFFBDE" fill-opacity="1.000000" fill-rule="nonzero"/>
		<path id="Vector" d="M364.66 571.35C363.86 572.18 363.88 573.49 364.71 574.29C383.09 592.08 429.78 625.36 436.9 628.68C439.99 630.12 447.34 632 456.65 634.39C467.41 637.14 479.61 640.27 487.32 643.31C495.79 646.66 503.49 649.44 509.59 649.44C512.08 649.44 514.3 648.98 516.19 647.89C519.04 646.27 521.11 643.44 521.45 639.38C521.71 636.09 518.55 621.37 506.37 608.47C496.14 597.64 468.3 589.74 463.88 587.11C459.45 584.48 438.75 551.81 438.75 551.81L364.66 571.35Z" fill="#FFFBDE" fill-opacity="1.000000" fill-rule="nonzero"/>
		<path id="Vector" d="M364.08 572.83L418.06 616.32C433.57 628.45 433.2 628.01 451.92 633.18L474.73 639.48C483.08 641.79 492.17 645.86 500.5 648.21C527.35 655.76 525.66 631.91 509.34 611.86C500.44 600.92 486.08 596.05 464.68 587.53L438.75 " stroke="#57A03C" stroke-opacity="1.000000" stroke-width="6.236842"/>
		<path id="Vector" d="M682.35 407.97L628.37 364.49C612.85 352.36 613.22 352.8 594.5 347.62L571.69 341.32C563.35 339.01 554.26 334.94 545.92 332.59C519.08 325.04 520.76 348.89 537.08 368.94C545.98 379.88 560.35 384.75 581.74 393.27L607.67 " stroke="#57A03C" stroke-opacity="1.000000" stroke-width="6.236842"/>
		<path id="Vector" d="M417.82 496.08C431.58 488.64 460.08 489.14 445.22 519.21C440.95 527.85 434.24 537.28 428.66 546.69C415.41 569.05 385.29 636.13 433.13 " stroke="#FBD927" stroke-opacity="1.000000" stroke-width="6.236842" stroke-linecap="round"/>
		<path id="Vector" d="M469.52 589.45C481.34 554.22 449.93 576.39 447.26 620.2C446.37 634.83 451.13 642.09 461.8 " stroke="#FBD927" stroke-opacity="1.000000" stroke-width="6.236842" stroke-linecap="round"/>
		<path id="Vector" d="M502.48 605.28L553.53 617.76C635.79 609.54 644.13 621.7 640.63 630.59C639.18 634.26 634.66 640.06 615.39 644.96C587.15 652.15 546.65 653.11 517.05 655.05C426.07 654.35 412.21 640.97 352.61 582.09C339.38 569.17 331.46 560.05 320.99 553.54C288.4 533.24 259.31 538.17 198.66 " stroke="#57A03C" stroke-opacity="1.000000" stroke-width="6.236842"/>
		<path id="Vector" d="M543.94 375.52L492.89 363.04C410.63 371.26 402.3 359.11 405.8 350.21C407.24 346.54 411.77 340.74 431.03 335.84C459.27 328.66 499.77 327.69 529.37 325.76C620.35 326.44 634.21 339.83 693.82 398.72C707.05 411.63 714.97 420.75 725.43 427.27C758.02 447.56 787.11 442.63 847.76 " stroke="#57A03C" stroke-opacity="1.000000" stroke-width="6.236842"/>
		<path id="Vector" d="M553.27 617.69C572.03 613.78 605.3 602.34 629.77 603.2C648.74 603.87 665.55 619.74 641.27 " stroke="#57A03C" stroke-opacity="1.000000" stroke-width="6.236842"/>
		<path id="Vector" d="M493.16 363.11C474.39 367.02 441.12 378.46 416.66 377.6C397.68 376.93 380.88 361.06 405.15 " stroke="#57A03C" stroke-opacity="1.000000" stroke-width="6.236842"/>
		<path id="Vector" d="M494.35 600.69L548.85 601.7L593.38 595.66L612.14 592.28C624.22 589.76 642.21 589.74 637.66 " stroke="#57A03C" stroke-opacity="1.000000" stroke-width="6.236842"/>
		<path id="Vector" d="M552.07 380.1L497.57 379.1L453.04 385.14L434.28 388.51C422.21 391.04 404.22 391.06 408.76 " stroke="#57A03C" stroke-opacity="1.000000" stroke-width="6.236842"/>
		<path id="Vector" d="M198.66 422.8L285.79 435.99C375.47 454.49 378.06 447.16 433.55 515.81L458.17 546.53C475.21 567.7 498.41 583.9 527.03 585.49C533.2 585.83 538.98 584.39 547.46 583.64L566.06 582.29C579.06 581.87 594.06 581.73 589.25 " stroke="#57A03C" stroke-opacity="1.000000" stroke-width="6.236842"/>
		<path id="Vector" d="M847.76 558L760.64 544.81C670.95 526.31 668.36 533.64 612.87 464.99L598.95 446.83L588.25 434.27C571.21 413.11 548.02 396.9 519.4 395.31C513.23 394.97 507.44 396.41 498.96 397.16L480.37 398.51C467.36 398.93 452.37 399.07 457.17 " stroke="#57A03C" stroke-opacity="1.000000" stroke-width="6.236842"/>
		<path id="Vector" d="M297.02 435.78C378.1 428.73 308.5 550.83 344.31 559.96C352.35 562 329.8 586.16 358.46 " stroke="#FBD927" stroke-opacity="1.000000" stroke-width="6.236842" stroke-linecap="round"/>
		<path id="Vector" d="M485.85 595.92C481.17 570.56 479.51 559.61 494.52 541.87C509.2 524.53 567.88 468.48 554.57 441.12C542.56 416.43 495.19 454.46 500.52 469.81C505.86 485.16 522.41 466.68 507.87 449.13C488.52 425.77 438.58 451.76 483.18 500.5C511.87 531.86 579.26 568.56 574.59 439.12C570.59 381.07 601.55 321.4 621.3 " stroke="#FBD927" stroke-opacity="1.000000" stroke-width="6.236842" stroke-linecap="round"/>
		<path id="Vector" d="M639.98 369.06C652.93 366.63 692.02 359.72 688.02 " stroke="#FBD927" stroke-opacity="1.000000" stroke-width="6.236842" stroke-linecap="round"/>
		<path id="Vector" d="M610.62 466.48C617.29 584.58 734.73 354.38 737.4 " stroke="#FBD927" stroke-opacity="1.000000" stroke-width="6.236842" stroke-linecap="round"/>
		<path id="Vector" d="M625.3 485.83C625.3 541.72 644.68 536.91 665.81 513.54C676.68 501.53 701.63 458.21 721.29 435.61C738.57 415.73 753.91 403.95 750.74 " stroke="#FBD927" stroke-opacity="1.000000" stroke-width="6.236842" stroke-linecap="round"/>
	</g>
	<g mask="url(#mask59_234)">
		<path id="Vector" d="M521.03 272.85C523.85 276 526.58 279.26 529.22 282.64C531.83 279.24 534.54 275.97 537.34 272.8C570.5 235.42 616.67 214.32 664.98 214.94C763.2 214.94 842.82 300.88 842.82 406.89C842.82 588.57 549.06 765.95 537.15 772.81C532.35 776.27 526.08 776.27 521.28 772.81C509.37 765.95 215.61 591.14 215.61 406.89C215.61 300.88 295.24 214.94 393.45 214.94C441.69 214.66 487.73 235.72 521.03 272.85ZM574.9 255.71Q554.8 269.86 539.1 290.25L529.28 303L519.38 290.31Q503.52 269.97 483.31 255.85Q473.54 249.02 462.75 243.64Q444.21 234.39 424.61 230.42Q409.35 227.32 393.45 227.41Q377.5 227.41 362.2 230.58Q345.41 234.07 329.41 241.37Q321.11 245.16 313.34 249.82Q293.35 261.82 276.85 279.64Q269.14 287.96 262.59 297.12Q249.6 315.29 241.2 336.73Q236.6 348.48 233.61 360.62Q228.09 383.08 228.09 406.89Q228.09 466.63 272.14 534Q308.35 589.39 372.33 647.11Q418.98 689.19 475.59 728.4Q507.43 750.44 527.5 762L528.05 762.32L528.57 762.69Q528.9 762.92 529.22 762.92Q529.54 762.92 529.86 762.69L530.38 762.32L530.93 762Q549.85 751.11 582.79 728.07Q639.38 688.49 686.08 646.17Q750.08 588.16 786.3 532.91Q830.35 465.74 830.35 406.89Q830.35 383.08 824.82 360.62Q821.83 348.47 817.23 336.73Q808.83 315.29 795.85 297.13Q789.3 287.97 781.58 279.64Q765.08 261.83 745.09 249.82Q737.32 245.16 729.02 241.37Q713.83 234.43 697.88 230.94Q681.74 227.41 664.82 227.41Q649.21 227.21 634.22 230.14Q614.36 234.02 595.58 243.39Q584.71 248.81 574.9 255.71Z" fill="#57A03C" fill-opacity="1.000000" fill-rule="evenodd"/>
	</g>
</svg>
