<svg width="63.000000" height="15.000000" viewBox="0 0 63 15" fill="none" xmlns="http://www.w3.org/2000/svg" xmlns:xlink="http://www.w3.org/1999/xlink">
	<desc>
			Created with Pixso.
	</desc>
	<defs/>
	<path id="Vector" d="M1.72 4.33L1.72 14.13L0 14.13L0 5.37L1.72 4.33ZM9.67 4.32C10.88 4.32 11.85 4.67 12.55 5.41C13.27 6.11 13.63 7.16 13.63 8.53L13.63 14.13L11.91 14.13L11.91 8.74C11.91 7.8 11.68 7.09 11.24 6.61C10.8 6.14 10.16 5.89 9.34 5.89C8.4 5.89 7.66 6.17 7.14 6.72C6.59 7.29 6.32 8.09 6.32 9.13L6.32 14.13L4.6 14.13L4.6 4.42L6.25 4.42L6.25 5.88C6.6 5.38 7.06 5 7.65 4.72C8.25 4.45 8.92 4.32 9.67 4.32ZM21.41 13.56C21.15 13.78 20.84 13.95 20.47 14.06C20.1 14.17 19.72 14.25 19.32 14.25C18.37 14.25 17.63 13.98 17.1 13.44C16.57 12.92 16.31 12.17 16.31 11.19L16.31 2.67L18.03 1.62L18.03 4.42L20.76 4.42L20.76 5.86L18.03 5.86L18.03 11.12C18.03 11.65 18.16 12.05 18.42 12.33C18.67 12.61 19.05 12.76 19.53 12.76C20.05 12.76 20.5 12.6 20.87 12.29L21.41 13.56ZM31.86 9.33C31.86 9.46 31.85 9.63 31.81 9.86L24.1 9.86C24.22 10.71 24.58 11.4 25.21 11.92C25.83 12.43 26.62 12.7 27.55 12.7C28.68 12.7 29.6 12.31 30.29 11.52L31.25 12.66C30.82 13.17 30.28 13.56 29.64 13.85C29 14.1 28.28 14.25 27.49 14.25C26.49 14.25 25.6 14.03 24.81 13.6C24.04 13.19 23.44 12.6 23.01 11.83C22.59 11.07 22.37 10.22 22.37 9.26C22.37 8.34 22.59 7.48 23 6.72C23.42 5.97 23.99 5.38 24.7 4.95C25.42 4.54 26.24 4.32 27.15 4.32C28.07 4.32 28.87 4.54 29.59 4.95C30.29 5.38 30.86 5.97 31.26 6.72C31.66 7.48 31.86 8.35 31.86 9.33ZM27.15 5.81C26.32 5.81 25.64 6.06 25.08 6.58C24.53 7.09 24.19 7.76 24.1 8.59L30.21 8.59C30.11 7.77 29.78 7.1 29.22 6.59C28.67 6.06 27.97 5.81 27.15 5.81ZM39.32 4.32C40.53 4.32 41.49 4.67 42.21 5.41C42.91 6.11 43.27 7.16 43.27 8.53L43.27 14.13L41.55 14.13L41.55 8.74C41.55 7.8 41.32 7.09 40.88 6.61C40.44 6.14 39.8 5.89 38.98 5.89C38.04 5.89 37.31 6.17 36.78 6.72C36.24 7.29 35.96 8.09 35.96 9.13L35.96 14.13L34.24 14.13L34.24 4.42L35.89 4.42L35.89 5.88C36.24 5.38 36.7 5 37.3 4.72C37.89 4.45 38.57 4.32 39.32 4.32ZM49.19 14.25C48.41 14.25 47.67 14.13 46.95 13.92C46.23 13.7 45.68 13.43 45.27 13.1L45.99 11.71C46.4 12.01 46.91 12.26 47.51 12.44C48.1 12.62 48.7 12.71 49.32 12.71C50.83 12.71 51.57 12.27 51.57 11.39C51.57 11.11 51.48 10.86 51.27 10.71C51.07 10.54 50.82 10.4 50.51 10.33C50.21 10.24 49.77 10.14 49.22 10.06C48.45 9.94 47.82 9.79 47.34 9.63C46.85 9.48 46.43 9.22 46.09 8.83C45.75 8.46 45.57 7.92 45.57 7.24C45.57 6.36 45.93 5.65 46.64 5.12C47.36 4.59 48.33 4.32 49.53 4.32C50.16 4.32 50.81 4.4 51.44 4.55C52.07 4.72 52.6 4.93 53 5.2L52.27 6.6C51.49 6.08 50.57 5.82 49.51 5.82C48.78 5.82 48.23 5.95 47.84 6.2C47.47 6.44 47.28 6.76 47.28 7.16C47.28 7.48 47.39 7.73 47.6 7.92C47.8 8.09 48.08 8.23 48.39 8.32C48.71 8.41 49.16 8.51 49.73 8.62C50.5 8.75 51.12 8.9 51.58 9.04C52.06 9.19 52.47 9.46 52.79 9.83C53.14 10.18 53.31 10.71 53.31 11.35C53.31 12.23 52.94 12.94 52.21 13.45C51.46 13.98 50.46 14.25 49.19 14.25ZM58.93 4.32C60.23 4.32 61.25 4.65 61.94 5.32C62.64 5.97 63 6.96 63 8.26L63 14.13L61.37 14.13L61.37 12.84C61.07 13.3 60.66 13.64 60.14 13.88C59.61 14.13 58.98 14.25 58.23 14.25C57.17 14.25 56.32 13.98 55.67 13.44C55.04 12.92 54.73 12.23 54.73 11.38C54.73 10.52 55.03 9.84 55.63 9.31C56.25 8.8 57.22 8.53 58.55 8.53L61.27 8.53L61.27 8.19C61.27 7.43 61.06 6.85 60.63 6.44C60.2 6.04 59.56 5.84 58.72 5.84C58.16 5.84 57.61 5.94 57.07 6.13C56.54 6.32 56.08 6.57 55.71 6.88L54.99 5.56C55.48 5.16 56.06 4.86 56.75 4.64C57.43 4.44 58.15 4.32 58.93 4.32ZM58.52 12.88C59.18 12.88 59.75 12.73 60.23 12.43C60.71 12.14 61.06 11.71 61.27 11.16L61.27 9.8L58.62 9.8C57.16 9.8 56.43 10.3 56.43 11.3C56.43 11.79 56.61 12.18 56.98 12.46C57.36 12.75 57.88 12.88 58.52 12.88Z" fill="#CA9161" fill-opacity="1.000000" fill-rule="nonzero"/>
	<path id="Vector" d="M2.71 1.62L1.35 2.44L0 3.26L0 0L1.35 0.81L2.71 1.62Z" fill="#CA9161" fill-opacity="1.000000" fill-rule="evenodd"/>
</svg>
