<svg width="1261.000000" height="561.000000" viewBox="0 0 1261 561" fill="none" xmlns="http://www.w3.org/2000/svg" xmlns:xlink="http://www.w3.org/1999/xlink">
	<desc>
			Created with Pixso.
	</desc>
	<defs>
		<clipPath id="clip24_3892">
			<rect id="logo 1" width="1261.000000" height="561.000000" fill="white" fill-opacity="0"/>
		</clipPath>
	</defs>
	<g opacity="0.300000">
		<rect id="logo 1" width="1261.000000" height="561.000000" fill="#FFFFFF" fill-opacity="0"/>
		<g clip-path="url(#clip24_3892)">
			<path id="Vector" d="M1184.41 383.35C1145.18 423.555 1091.93 445.06 1034.02 445.06C1030.28 445.06 1025.61 445.06 1021.88 445.06C1018.14 445.06 1011.6 445.06 1003.2 444.125L995.723 444.125C958.36 442.255 901.382 438.515 880.832 438.515C772.479 438.515 677.204 486.2 629.566 537.625C581.928 487.135 486.653 439.45 378.3 439.45C357.75 439.45 298.904 443.19 263.409 445.06C263.409 445.06 241.925 445.995 237.255 445.995C233.519 445.995 228.848 445.995 225.112 445.995C107.419 445.995 14.9453 354.365 14.0112 236.555C14.0112 140.25 78.4624 54.2295 171.87 27.1152L172.804 27.1152C191.485 20.5703 228.848 18.7002 237.255 18.7002L240.991 18.7002C321.322 18.7002 398.85 43.9453 466.103 66.3848C503.466 78.54 541.763 91.6299 580.994 98.1748C593.137 100.045 606.214 101.915 618.357 101.915C628.632 101.915 639.841 101.915 650.116 100.98C660.391 100.045 670.665 98.1748 680.94 96.3047C692.149 94.4355 702.424 91.6299 713.633 87.8896C724.842 85.085 736.051 81.3447 747.259 77.6055C758.468 73.8652 770.611 70.125 781.82 66.3848C782.754 66.3848 784.622 65.4502 786.49 65.4502C854.678 43.0098 931.272 17.7646 1011.6 16.8301L1015.34 16.8301C1021.88 16.8301 1061.11 18.7002 1080.72 25.2451L1081.66 25.2451C1174.13 52.3604 1239.52 138.38 1239.52 233.75C1244.19 290.785 1223.64 343.145 1184.41 383.35Z" fill="#F9DB07" fill-opacity="1.000000" fill-rule="nonzero"/>
			<path id="Vector" d="M630.5 561L618.357 547.91C574.456 501.16 483.85 454.41 379.234 454.41C359.619 454.41 302.64 458.15 268.079 460.021L266.211 460.021C261.541 460.021 240.991 460.955 240.057 460.955C235.387 460.955 231.65 460.955 226.98 460.955C99.946 460.955 0 361.845 0 234.686C0 130.9 69.1216 39.2705 168.133 10.2852C189.617 2.80469 231.65 0.93457 238.189 0.93457L242.859 0.93457C325.992 0.93457 404.454 26.1797 473.576 49.5547L481.048 52.3604C515.609 63.5801 551.104 75.7354 585.665 81.3447C599.676 83.2148 610.885 85.085 621.159 85.085C632.368 85.085 642.643 85.085 651.05 84.1504C659.456 83.2148 668.797 82.2803 680.94 79.4746C690.281 77.6055 700.556 74.7998 712.699 71.9951C722.973 69.1904 734.182 65.4502 746.325 62.6455C755.666 59.8398 765.007 56.1006 775.281 53.2949L785.556 49.5547C854.678 25.2451 932.206 0 1016.27 0L1020.01 0C1020.01 0 1066.71 0.93457 1090.06 9.34961C1190.01 38.335 1259.13 130.9 1260.07 233.75C1260.07 294.525 1237.65 351.561 1195.61 393.635C1154.52 435.71 1097.54 459.085 1036.82 460.021C1035.89 460.021 1034.95 460.021 1034.02 460.021C1030.28 460.021 1025.61 460.021 1020.94 460.021C1017.21 460.021 1012.54 460.02 1006 459.085L992.921 458.15C956.492 456.28 901.381 452.54 881.766 453.475C880.832 453.475 878.964 453.475 878.03 453.475C775.281 454.41 685.61 501.16 642.643 547.91L630.5 561ZM376.432 421.686C377.366 421.686 378.3 421.686 379.234 421.686C491.323 421.686 581.928 468.435 630.5 513.314C678.138 468.435 766.875 422.62 877.095 420.75C878.03 420.75 879.898 420.75 881.766 420.75C902.315 420.75 955.558 423.555 994.789 425.425L1007.87 426.36C1014.4 426.36 1019.07 426.36 1022.81 427.295C1026.55 427.295 1030.28 427.295 1034.02 427.295C1087.26 427.295 1135.83 406.726 1172.26 371.195C1207.76 334.73 1227.37 286.11 1227.37 233.75C1227.37 144.925 1166.66 65.4502 1080.72 41.1396L1078.86 41.1396C1063.91 35.5303 1027.48 33.6602 1020.01 33.6602L1016.27 33.6602C938.744 33.6602 863.084 58.9053 795.831 81.3447L785.556 85.085C776.216 87.8896 765.941 91.6299 756.6 94.4355C744.457 98.1748 733.248 101.915 722.039 104.72C709.896 108.46 698.688 111.265 688.413 113.135C675.335 115.94 665.061 117.811 655.72 118.745C645.445 119.68 635.17 119.68 621.159 119.68C609.016 119.68 595.939 117.811 580.994 115.005C543.631 108.46 507.202 96.3047 470.773 84.1504L463.301 81.3447C396.981 58.9053 320.387 34.5947 242.859 34.5947L239.123 34.5947C228.848 34.5947 194.287 37.4004 179.342 42.0752L177.474 42.0752C92.4734 66.3848 31.7585 145.86 32.6926 234.686C32.6926 343.146 117.693 428.23 226.98 428.23C230.716 428.23 234.453 428.23 238.189 428.23C241.925 428.23 260.607 427.295 263.409 427.295L266.211 427.295C301.706 424.49 354.014 422.62 376.432 421.686Z" fill="#E22726" fill-opacity="1.000000" fill-rule="nonzero"/>
			<path id="Vector" d="M707.094 266.476C707.094 283.306 707.094 301.07 707.094 318.836C707.094 328.186 705.226 330.056 695.885 330.056C692.149 330.056 687.479 330.056 683.742 330.056C675.336 330.056 673.468 328.186 673.468 319.771C673.468 292.655 673.468 264.605 673.468 237.49C673.468 233.75 672.533 231.88 668.797 232.815C657.588 232.815 646.379 232.815 635.17 232.815C631.434 232.815 631.434 233.75 631.434 237.49C631.434 254.32 631.434 271.15 631.434 288.915C632.368 317.9 610.885 333.795 583.796 331.926C579.126 331.926 576.324 329.12 576.324 323.511C576.324 318.836 576.324 314.16 576.324 308.551C576.324 303.875 578.192 301.07 582.862 301.07C592.203 300.136 597.807 294.525 597.807 285.176C597.807 260.865 597.807 237.49 597.807 213.181C597.807 204.766 599.676 202.896 608.082 202.896C637.973 202.896 667.863 202.896 698.688 202.896C707.094 202.896 708.962 204.766 708.962 213.181C707.094 230.945 707.094 248.71 707.094 266.476Z" fill="#E22726" fill-opacity="1.000000" fill-rule="nonzero"/>
			<path id="Vector" d="M552.972 266.476C552.972 284.24 552.972 302.006 552.972 319.771C552.972 327.251 551.104 329.12 543.631 329.12C538.961 329.12 534.291 329.12 530.554 329.12C521.213 329.12 519.345 327.25 519.345 317.9C519.345 290.785 519.345 263.671 519.345 236.556C519.345 232.815 518.411 231.881 514.675 231.881C503.466 231.881 492.257 231.881 480.114 231.881C477.312 231.881 476.378 231.881 476.378 235.62C476.378 252.45 476.378 270.216 476.378 287.98C476.378 316.03 454.894 331.926 428.74 330.056C424.07 330.056 421.268 327.25 421.268 321.641C421.268 316.03 421.268 311.355 421.268 305.745C421.268 302.006 423.136 299.2 427.806 298.266C438.081 297.33 442.751 292.655 442.751 282.37C442.751 258.995 442.751 235.62 442.751 211.311C442.751 209.44 442.751 208.506 442.751 206.636C442.751 202.896 444.619 201.025 448.356 201.025C450.224 201.025 451.158 201.025 453.026 201.025C482.917 201.025 511.873 201.025 541.763 201.025C551.104 201.025 552.972 201.961 552.972 212.245C552.972 230.945 552.972 248.71 552.972 266.476Z" fill="#E22726" fill-opacity="1.000000" fill-rule="nonzero"/>
			<path id="Vector" d="M1013.47 265.54C1013.47 247.775 1013.47 230.011 1013.47 212.245C1013.47 204.766 1015.34 202.896 1022.81 202.896C1027.48 202.896 1032.15 202.896 1037.76 202.896C1045.23 202.896 1047.1 204.766 1047.1 212.245C1047.1 223.466 1047.1 234.686 1047.1 245.905C1047.1 248.711 1048.03 249.646 1050.83 249.646C1065.78 249.646 1080.72 249.646 1096.6 249.646C1100.34 249.646 1100.34 248.711 1100.34 245.905C1100.34 234.686 1100.34 223.466 1100.34 212.245C1100.34 205.7 1102.21 203.83 1108.75 203.83C1114.35 203.83 1119.95 203.83 1125.56 203.83C1132.1 203.83 1133.97 206.636 1133.97 212.245C1133.97 219.726 1133.97 226.271 1133.97 233.75C1133.97 262.735 1133.97 291.721 1133.97 320.705C1133.97 329.12 1132.1 331.926 1123.69 331.926C1119.02 331.926 1114.35 331.926 1108.75 331.926C1103.14 331.926 1100.34 329.12 1100.34 323.511C1100.34 310.421 1100.34 298.266 1100.34 284.24C1100.34 281.436 1099.41 280.5 1096.6 280.5C1081.66 280.5 1066.71 280.5 1050.83 280.5C1047.1 280.5 1047.1 281.436 1047.1 285.176C1047.1 298.266 1047.1 310.421 1047.1 323.511C1047.1 330.056 1045.23 332.86 1037.76 332.86C1033.09 332.86 1027.48 332.86 1022.81 332.86C1015.34 332.86 1013.47 330.056 1013.47 323.511C1013.47 302.006 1013.47 284.24 1013.47 265.54Z" fill="#E22726" fill-opacity="1.000000" fill-rule="nonzero"/>
			<path id="Vector" d="M783.688 202.896C798.633 202.896 813.578 202.896 828.523 202.896C835.996 202.896 837.864 204.766 837.864 212.245C837.864 215.985 837.864 220.66 837.864 224.4C837.864 230.011 835.062 232.815 829.458 232.815C821.051 232.815 812.644 232.815 804.238 232.815C801.436 232.815 800.501 233.751 800.501 236.556C800.501 264.605 800.501 291.721 800.501 319.771C800.501 328.186 798.633 330.056 790.227 330.056C785.556 330.056 780.886 330.056 776.216 330.056C768.743 330.056 766.875 327.251 766.875 320.705C766.875 292.655 766.875 264.605 766.875 237.49C766.875 233.75 765.941 232.815 762.204 232.815C753.798 232.815 746.325 232.815 737.918 232.815C731.38 232.815 728.578 230.945 728.578 224.4C728.578 220.66 728.578 215.985 728.578 212.245C728.578 204.766 730.446 202.896 737.918 202.896C753.798 202.896 768.743 202.896 783.688 202.896Z" fill="#E22726" fill-opacity="1.000000" fill-rule="nonzero"/>
			<path id="Vector" d="M241.925 171.105C230.716 161.755 216.705 158.95 201.76 158.95C184.013 158.95 167.199 158.95 150.386 158.95C141.979 158.95 140.111 161.755 140.111 169.235C140.111 194.48 140.111 219.726 140.111 244.035C140.111 269.28 140.111 295.46 140.111 320.705C140.111 327.25 142.913 330.056 149.452 330.056C155.056 330.056 159.727 330.056 165.331 330.056C172.804 330.056 174.672 328.186 174.672 320.705C174.672 304.811 174.672 289.851 174.672 274.891C174.672 272.085 174.672 271.15 178.408 271.15C189.617 271.15 200.826 271.15 212.035 270.215C238.189 267.41 257.804 249.646 260.607 223.465C264.343 202.896 259.673 184.195 241.925 171.105ZM226.98 219.726C225.112 232.815 215.771 241.23 200.826 241.23C193.353 241.23 185.881 241.23 178.408 241.23C176.54 241.23 175.606 240.295 175.606 238.425C175.606 230.01 175.606 222.53 175.606 214.115C175.606 205.7 175.606 198.221 175.606 189.806C175.606 187.936 175.606 186.065 178.408 186.065C186.815 186.065 194.287 186.065 202.694 186.065C220.441 188.87 228.848 201.96 226.98 219.726Z" fill="#E22726" fill-opacity="1.000000" fill-rule="nonzero"/>
			<path id="Vector" d="M389.509 219.725C370.827 201.96 347.476 196.35 322.256 201.024C282.09 208.505 257.804 248.71 270.882 287.045C280.222 314.16 307.31 332.859 340.003 332.859C346.542 332.859 353.08 331.925 359.619 330.055C383.905 322.575 400.718 307.615 407.256 283.305C413.795 259.93 408.19 237.489 389.509 219.725ZM339.069 302.939C318.519 302.939 301.706 287.045 301.706 266.475C301.706 245.904 317.585 230.01 339.069 230.01C359.619 230.01 376.432 245.904 376.432 266.475C376.432 287.045 359.619 302.939 339.069 302.939Z" fill="#E22726" fill-opacity="1.000000" fill-rule="nonzero"/>
			<path id="Vector" d="M969.569 218.79C950.887 201.024 927.536 195.415 902.316 201.025C862.15 208.505 837.865 248.71 850.942 287.98C860.282 315.095 887.37 332.86 920.063 332.86C925.667 332.86 933.14 331.925 939.679 330.055C963.965 322.575 980.778 307.615 987.316 283.305C993.855 258.995 988.25 236.555 969.569 218.79ZM918.195 302.939C897.645 302.939 880.832 287.045 880.832 266.475C880.832 245.905 896.711 229.075 918.195 229.075C938.745 229.075 955.558 244.97 955.558 265.54C955.558 286.11 939.679 302.939 918.195 302.939Z" fill="#E22726" fill-opacity="1.000000" fill-rule="nonzero"/>
			<path id="Vector" d="M1190.01 172.039C1190.01 184.194 1180.67 194.479 1167.59 194.479C1154.52 194.479 1145.17 185.13 1145.17 172.039C1145.17 159.885 1154.52 149.6 1167.59 149.6C1180.67 150.534 1190.01 158.949 1190.01 172.039ZM1185.34 172.039C1185.34 162.689 1177.87 156.145 1168.53 156.145C1159.19 156.145 1151.71 163.625 1151.71 172.975C1151.71 182.324 1159.19 189.805 1168.53 189.805C1177.87 188.87 1185.34 181.39 1185.34 172.039ZM1175.07 175.779L1179.74 183.26L1173.2 183.26L1168.53 176.715L1164.79 176.715L1164.79 183.26L1158.25 183.26L1158.25 160.819L1167.59 160.819C1174.13 160.819 1176.93 163.625 1176.93 169.234C1178.8 172.04 1177.87 174.845 1175.07 175.779ZM1168.53 172.039C1171.33 172.039 1173.2 171.104 1173.2 168.3C1173.2 165.494 1171.33 164.56 1168.53 164.56L1164.79 164.56L1164.79 172.039L1168.53 172.039Z" fill="#E22726" fill-opacity="1.000000" fill-rule="nonzero"/>
		</g>
	</g>
</svg>
