<svg width="363.095215" height="93.571655" viewBox="0 0 363.095 93.5717" fill="none" xmlns="http://www.w3.org/2000/svg" xmlns:xlink="http://www.w3.org/1999/xlink">
	<desc>
		Created with Pixso.
	</desc>
	<defs>
		<linearGradient id="paint_linear_36_1924_0" x1="204.097382" y1="72.072845" x2="25.886444" y2="-25.108719" gradientUnits="userSpaceOnUse">
			<stop offset="0.004629" stop-color="#FAB65B"/>
			<stop offset="1.000000" stop-color="#FFFBDE"/>
		</linearGradient>
	</defs>
	<path id="Vector" d="M361.879 41.9022C344.132 36.2393 286.883 38.7587 266.588 29.9365C209.148 4.96655 289.687 -9.39368 288.038 22.3726C287.289 36.8206 280.843 48.4291 272.961 58.6241C265.079 68.8191 251.326 76.0878 233.094 72.5216C212.839 68.5581 198.585 38.9612 179.881 44.7277C169.339 47.9812 157.633 65.8987 151.12 75.1361C133.602 99.9803 139.414 93.2745 115.748 51.0107C47.4348 -70.994 -34.4875 136.041 53.25 51.373C75.146 30.2432 39.1455 26.3745 12.4954 11.8429C13.2957 1.53711 1.34033 29.8811 4.57471 20.4563" stroke="url(#paint_linear_36_1924_0)" stroke-opacity="1.000000" stroke-width="8.000000"/>
</svg>
